<svg xmlns="http://www.w3.org/2000/svg" width="140" height="47" viewBox="0 0 140 47">
    <g fill="none" fill-rule="evenodd">
        <path fill="#000" d="M70.519 35.286c-.492 1.874-1.02 3.7-1.587 5.479a173.481 173.481 0 0 1-1.683 5.032h-3.174a68.407 68.407 0 0 1-1.347-3.355c-.47-1.256-.94-2.598-1.41-4.025-.47-1.427-.94-2.929-1.411-4.505-.47-1.576-.93-3.184-1.379-4.824h4.104c.192.895.417 1.858.673 2.891a346 346 0 0 0 .802 3.163c.278 1.076.566 2.125.865 3.147.3 1.022.599 1.96.898 2.811a115.296 115.296 0 0 0 1.828-6.165c.277-1.044.54-2.061.785-3.051.246-.99.465-1.923.657-2.796h2.982a176.985 176.985 0 0 0 1.395 5.847c.267 1.043.555 2.087.865 3.13.31 1.044.625 2.056.946 3.035.278-.852.566-1.789.866-2.811.299-1.022.593-2.071.881-3.147.289-1.075.561-2.13.818-3.163.256-1.033.48-1.996.673-2.89h4.008c-.45 1.64-.909 3.247-1.379 4.823-.47 1.576-.94 3.078-1.41 4.505s-.941 2.769-1.411 4.025a51.155 51.155 0 0 1-1.379 3.355h-3.142a269.41 269.41 0 0 1-1.715-5.032 91.14 91.14 0 0 1-1.619-5.48zm24.11 7.795c1.196 0 2.105-.064 2.725-.192v-4.28a7.57 7.57 0 0 0-.93-.192 8.698 8.698 0 0 0-1.347-.096c-.427 0-.86.032-1.298.096a4.057 4.057 0 0 0-1.186.351c-.353.17-.636.41-.85.719-.214.309-.32.698-.32 1.166 0 .916.288 1.55.865 1.901s1.357.527 2.34.527zm-.321-14.408c1.282 0 2.362.16 3.238.479.876.32 1.576.767 2.1 1.342.524.575.898 1.272 1.122 2.092.225.82.337 1.72.337 2.7v10.127c-.599.128-1.502.282-2.71.463-1.207.182-2.57.272-4.087.272-1.005 0-1.924-.096-2.757-.287-.834-.192-1.545-.501-2.132-.927a4.375 4.375 0 0 1-1.379-1.661c-.331-.682-.497-1.523-.497-2.524 0-.958.187-1.768.561-2.428a4.595 4.595 0 0 1 1.523-1.613c.641-.416 1.384-.714 2.228-.895a12.585 12.585 0 0 1 2.645-.271 11.983 11.983 0 0 1 2.854.35v-.638c0-.447-.054-.873-.16-1.278a2.645 2.645 0 0 0-.562-1.07 2.625 2.625 0 0 0-1.058-.719c-.438-.17-.988-.256-1.65-.256-.898 0-1.721.064-2.47.192-.748.128-1.357.277-1.827.447l-.48-3.13c.49-.17 1.207-.341 2.147-.512.94-.17 1.945-.255 3.014-.255zm24.302 3.897c-.32-.106-.764-.218-1.33-.335a9.82 9.82 0 0 0-1.972-.176c-.428 0-.882.043-1.363.128-.48.085-.817.16-1.01.224v13.386h-3.88v-15.91c.749-.277 1.684-.538 2.806-.783s2.367-.367 3.735-.367c.257 0 .556.016.898.048.342.032.684.074 1.026.127.342.054.673.118.994.192.32.075.577.144.77.208l-.674 3.258zm9.618 4.824c0 1.704.406 3.04 1.218 4.01.813.969 1.935 1.453 3.367 1.453.62 0 1.149-.026 1.587-.08a10.73 10.73 0 0 0 1.074-.175v-9.584c-.342-.235-.796-.453-1.363-.655a5.344 5.344 0 0 0-1.811-.304c-1.41 0-2.442.48-3.094 1.438-.652.958-.978 2.257-.978 3.897zm11.125 7.891c-.77.235-1.737.448-2.901.64a22.594 22.594 0 0 1-3.671.287c-1.326 0-2.512-.202-3.56-.607a7.418 7.418 0 0 1-2.676-1.741c-.738-.756-1.304-1.672-1.7-2.748-.395-1.075-.592-2.284-.592-3.626 0-1.32.165-2.518.496-3.594.332-1.075.818-1.996 1.46-2.763a6.5 6.5 0 0 1 2.34-1.773c.919-.416 1.977-.623 3.174-.623.812 0 1.528.096 2.148.287a9.63 9.63 0 0 1 1.603.64v-8.02l3.88-.639v24.28zM11.293 37.394c0-1.64-.33-2.939-.992-3.897-.662-.959-1.709-1.438-3.141-1.438-.65 0-1.264.096-1.839.288-.575.191-1.036.404-1.383.639v9.616c.282.064.645.122 1.09.176.445.053.982.08 1.611.08 1.454 0 2.593-.485 3.418-1.454.824-.97 1.236-2.306 1.236-4.01zm4.036.064c0 1.342-.2 2.55-.602 3.626-.402 1.076-.977 1.997-1.725 2.764a7.438 7.438 0 0 1-2.718 1.757c-1.063.405-2.267.607-3.612.607-1.302 0-2.544-.096-3.727-.288C1.763 45.733.781 45.52 0 45.285v-23.64l3.938-.64v8.658a9.442 9.442 0 0 1 1.676-.639 7.88 7.88 0 0 1 2.197-.287c1.193 0 2.262.207 3.206.623a6.266 6.266 0 0 1 2.36 1.773c.628.767 1.111 1.688 1.447 2.763.337 1.076.505 2.263.505 3.562z"/>
        <g fill="#111">
            <g transform="translate(22.14 4.723)">
                <path fill-rule="nonzero" d="M11.66 13.228l-1.581.196c-.405-3.566-2.188-6.218-5.41-8.026l.754-1.465c3.672 2.06 5.77 5.182 6.237 9.295z"/>
                <ellipse cx="3.602" cy="3.745" rx="3.492" ry="3.646"/>
            </g>
            <g transform="matrix(-1 0 0 1 53.501 .208)">
                <path fill-rule="nonzero" d="M14.526 17.84l-1.569.285c-.703-4.238-2.793-7.616-6.3-10.175l.912-1.363c3.852 2.81 6.181 6.575 6.957 11.254z"/>
                <ellipse cx="5.103" cy="5.283" rx="5.042" ry="5.264"/>
            </g>
            <path fill-rule="nonzero" d="M26.176 24.843L24.088 21.7c8.058-5.837 16.321-5.837 24.38 0l-2.088 3.143c-6.803-4.928-13.401-4.928-20.204 0z"/>
        </g>
        <g fill="#FFF">
            <path d="M39.404 36.734c0-1.494.212-2.805.637-3.931.425-1.127.99-2.063 1.695-2.81a7 7 0 0 1 2.425-1.69 7.227 7.227 0 0 1 2.798-.57c2.238 0 3.985.727 5.239 2.178s1.88 3.617 1.88 6.498c0 .217-.005.46-.015.732-.01.27-.026.514-.047.73H43.29c.104 1.365.565 2.421 1.384 3.169.818.747 2.005 1.12 3.56 1.12h.855v3.412h-1.322c-1.43 0-2.673-.222-3.73-.666-1.058-.444-1.928-1.061-2.612-1.852-.684-.79-1.192-1.722-1.524-2.794-.331-1.072-.497-2.248-.497-3.526zm10.913-1.754c0-.542-.073-1.056-.218-1.544a3.782 3.782 0 0 0-.637-1.267 3.04 3.04 0 0 0-1.026-.845c-.404-.205-.886-.308-1.446-.308-.58 0-1.088.113-1.523.34a3.497 3.497 0 0 0-1.104.894c-.3.369-.534.791-.7 1.268-.165.476-.28.964-.342 1.462h6.996zM34.924 36.779c0-1.488-.211-2.792-.634-3.912-.423-1.121-.985-2.053-1.686-2.797a6.966 6.966 0 0 0-2.413-1.681 7.191 7.191 0 0 0-2.784-.566c-2.227 0-3.965.722-5.213 2.166-1.247 1.444-1.871 3.6-1.871 6.466 0 .216.005.458.015.728.01.27.026.512.047.727h10.672c-.103 1.358-.562 2.409-1.376 3.152-.815.744-1.996 1.116-3.542 1.116h-.851v3.394h1.315c1.423 0 2.66-.22 3.712-.662 1.052-.442 1.918-1.056 2.598-1.843.68-.787 1.186-1.714 1.516-2.78.33-1.067.495-2.237.495-3.508zm-10.858-1.746c0-.54.072-1.051.216-1.536.145-.485.356-.905.635-1.26a3.024 3.024 0 0 1 1.02-.841c.403-.205.882-.308 1.439-.308.577 0 1.083.114 1.516.34.433.226.799.523 1.098.889.299.366.531.787.696 1.26.165.475.278.96.34 1.456h-6.96z"/>
        </g>
    </g>
</svg>
